<svg xmlns="http://www.w3.org/2000/svg" viewBox="0 0 184.94 185.27"><title>seventh-day-adventist-logo</title><path d="M281.38,317c-12.53-2.07-19.28,3.81-21.35,9.37-.22.54-.76.44-.76,0v-1.74c0-6.21,5.55-11.87,12.09-18.52l10.89-10.89,29,5,15.36,15.36a92.47,92.47,0,1,0-141.16,0l15.36-15.36,32.89-5.66c15.25-2.61,19.06.76,19.06,5.88a.47.47,0,0,1-.44.44H243c-.22,0-.22.22-.22.44V307c0,.22-.22.22,0,.22h9.48a.47.47,0,0,1,.44.44v18.84c0,.44-.54.54-.76.11-2.07-5.55-8.82-11.44-21.35-9.37,0,0-21.67,3.7-37.79,6.53a92.49,92.49,0,0,0,126.12,0C303.05,320.75,281.38,317,281.38,317Zm-21.24.22c-.11.54-.76.54-.76,0v-9.69c0-.22.11-.44.33-.44h4.79A24.65,24.65,0,0,0,260.14,317.27Zm34.31-60.45c2.29,7.52.76,19-10,29.84l-13.07,12.85c-.33.33-.76.87-1.09.87h-8.93a85,85,0,0,1,10-11.55l9-9c11.44-11.44,13.29-16.88,13.29-23.2C293.79,256.16,294.34,256.16,294.45,256.82Zm-17.75-7.08c7.41-7.41,9.26-16,3.27-21.13-.54-.44-.22-1,.44-.65,7.41,3.38,13.18,15.58.54,28.21l-9.58,9.58c-6.53,6.53-9.58,9.58-11.22,17.54-.11.54-.76.54-.76,0v-9.69c0-6.21,5.45-11.87,12.09-18.52Zm-58.92,8.71c-2.29-7.52-.76-19,10-29.84l28.75-28.75c6.53-6.53,9.91-9.69,11.55-17.54.11-.54,1.09-.54,1.09,0V192c0,6.21-5.77,11.87-12.42,18.52l-24.83,24.72c-11.55,11.55-13.4,16.88-13.4,23.2C218.53,259.1,218,259.1,217.77,258.45Zm4.36,17.1c-6.43-7.84-4.25-20,8.39-32.67l26-26c6.53-6.53,9.91-9.69,11.55-17.64.11-.54,1.09-.54,1.09,0V209c0,6.21-5.77,11.87-12.42,18.52l-23.09,23c-4.79,4.79-15.14,15-10.89,24.62C223.11,275.77,222.56,276.1,222.13,275.55Zm13.4-10c-7.41,7.41-9.26,16-3.27,21.13.54.44.22,1-.44.65-7.41-3.38-13.18-15.58-.54-28.21l25.27-25.27c6.53-6.53,9.91-9.58,11.55-17.54.11-.54,1.09-.54,1.09,0V226c0,6.21-5.77,11.87-12.42,18.52Zm23.85,25.05c0-6.21,5.45-11.87,12.09-18.52l7.3-7.3c4.79-4.79,15-15,10.78-24.62-.33-.65.22-1,.65-.44,6.43,7.84,4.25,20-8.39,32.67l-10.35,10.35c-6.53,6.53-9.58,9.69-11.22,17.64-.11.54-.76.54-.76,0v-9.8Z" transform="translate(-163.53 -163.37)"/></svg>